<svg width="50" height="50" viewBox="0 0 50 50" fill="none" xmlns="http://www.w3.org/2000/svg">
<path d="M25 0C11.1929 0 0 11.1929 0 25C0 38.8071 11.1929 50 25 50C38.8071 50 50 38.8071 50 25C50 11.1929 38.8071 0 25 0ZM39.2665 39.1822C35.4586 42.9901 30.3929 45.0865 25.0001 45.0865C19.6074 45.0865 14.5407 42.9893 10.7336 39.1822C6.9429 35.3901 4.85431 30.3536 4.85431 25C4.85431 19.6457 6.9429 14.6085 10.7336 10.8178C14.5407 7.00988 19.6073 4.91354 25 4.91354C30.3914 4.91354 35.4586 7.01067 39.2657 10.8178C43.0572 14.6085 45.1442 19.6456 45.1442 25C45.145 30.3536 43.0572 35.3907 39.2665 39.1822Z" fill="#0000FF"/>
</svg>
