<svg width="50" height="50" viewBox="0 0 50 50" fill="none" xmlns="http://www.w3.org/2000/svg">
<g clip-path="url(#clip0_12_3)">
<path d="M2.30395 0.122804C2.79713 0.421453 3.16977 0.808365 3.57382 1.21681C3.71087 1.35345 3.71087 1.35345 3.85068 1.49285C4.10342 1.74515 4.35542 1.99815 4.60715 2.25146C4.87903 2.52471 5.15183 2.79705 5.42452 3.0695C5.89662 3.54143 6.36813 4.01393 6.83925 4.48683C7.52041 5.17056 8.20244 5.85342 8.88469 6.53606C9.99161 7.64367 11.0978 8.75198 12.2036 9.86073C13.2776 10.9377 14.352 12.0143 15.4269 13.0905C15.5263 13.19 15.5263 13.19 15.6277 13.2916C15.9601 13.6244 16.2926 13.9573 16.6251 14.2902C19.3826 17.051 22.139 19.8129 24.8946 22.5756C25.2296 22.4276 25.4544 22.2526 25.7123 21.9937C25.79 21.9163 25.8676 21.8389 25.9476 21.7592C26.0321 21.6738 26.1166 21.5885 26.2037 21.5005C26.2941 21.4101 26.3845 21.3196 26.4776 21.2265C26.7284 20.9754 26.9787 20.7238 27.2289 20.472C27.4987 20.2006 27.7692 19.9298 28.0396 19.6589C28.5081 19.1894 28.9762 18.7196 29.4441 18.2495C30.1211 17.5694 30.7987 16.8901 31.4766 16.211C32.5769 15.1087 33.6769 14.006 34.7765 12.903C34.8752 12.804 34.8752 12.804 34.976 12.703C35.7104 11.9662 36.4448 11.2294 37.1791 10.4925C37.4454 10.2253 37.7117 9.95801 37.978 9.69076C38.0437 9.62481 38.1094 9.55887 38.1771 9.49093C39.2723 8.39189 40.368 7.29347 41.4643 6.19553C42.1407 5.51809 42.8165 4.84014 43.4916 4.16149C43.9541 3.69665 44.4172 3.23238 44.8807 2.76855C45.1482 2.50079 45.4155 2.23278 45.6821 1.96407C45.9709 1.67296 46.2609 1.38308 46.5511 1.0933C46.6354 1.00793 46.7197 0.922561 46.8066 0.834603C46.9234 0.718507 46.9234 0.718507 47.0426 0.600065C47.1094 0.533016 47.1763 0.465968 47.2451 0.396887C47.7018 0.0263324 48.14 -0.0324087 48.7169 0.0181941C49.2713 0.217761 49.538 0.502845 49.8764 0.96687C50.0323 1.43449 50.0496 1.83752 49.8772 2.30395C49.5785 2.79713 49.1916 3.16977 48.7832 3.57382C48.6921 3.66519 48.601 3.75655 48.5072 3.85068C48.2548 4.10342 48.0019 4.35542 47.7485 4.60715C47.4753 4.87903 47.203 5.15183 46.9305 5.42452C46.4586 5.89662 45.9861 6.36813 45.5132 6.83925C44.8294 7.52041 44.1466 8.20244 43.4639 8.88469C42.3563 9.99161 41.248 11.0978 40.1393 12.2036C39.0623 13.2776 37.9857 14.352 36.9095 15.4269C36.8431 15.4931 36.7768 15.5594 36.7084 15.6277C36.3756 15.9601 36.0427 16.2926 35.7098 16.6251C32.949 19.3826 30.1871 22.139 27.4244 24.8946C27.5724 25.2296 27.7474 25.4544 28.0063 25.7123C28.0837 25.79 28.1611 25.8676 28.2408 25.9476C28.3262 26.0321 28.4115 26.1166 28.4995 26.2037C28.5899 26.2941 28.6804 26.3845 28.7735 26.4776C29.0246 26.7284 29.2762 26.9787 29.528 27.2289C29.7994 27.4987 30.0702 27.7692 30.3411 28.0396C30.8106 28.5081 31.2804 28.9762 31.7505 29.4442C32.4306 30.1211 33.1099 30.7987 33.789 31.4766C34.8913 32.5769 35.994 33.6769 37.097 34.7765C37.163 34.8423 37.229 34.9082 37.297 34.976C38.0338 35.7104 38.7706 36.4448 39.5075 37.1791C39.7747 37.4454 40.042 37.7117 40.3092 37.978C40.3752 38.0437 40.4411 38.1094 40.5091 38.1771C41.6081 39.2723 42.7065 40.368 43.8045 41.4643C44.4819 42.1407 45.1599 42.8165 45.8385 43.4916C46.3033 43.9541 46.7676 44.4172 47.2315 44.8807C47.4992 45.1482 47.7672 45.4155 48.0359 45.6821C48.327 45.9709 48.6169 46.2609 48.9067 46.5511C49.0348 46.6776 49.0348 46.6776 49.1654 46.8066C49.2428 46.8845 49.3202 46.9624 49.3999 47.0426C49.467 47.1094 49.534 47.1763 49.6031 47.2451C49.9737 47.7018 50.0324 48.14 49.9818 48.7169C49.7822 49.2713 49.4972 49.538 49.0331 49.8764C48.5655 50.0323 48.1625 50.0496 47.6961 49.8772C47.2029 49.5785 46.8302 49.1916 46.4262 48.7832C46.3348 48.6921 46.2435 48.601 46.1493 48.5072C45.8966 48.2548 45.6446 48.0019 45.3928 47.7485C45.121 47.4753 44.8482 47.203 44.5755 46.9305C44.1034 46.4586 43.6319 45.9861 43.1607 45.5132C42.4796 44.8294 41.7976 44.1466 41.1153 43.4639C40.0084 42.3563 38.9022 41.248 37.7964 40.1393C36.7224 39.0623 35.648 37.9857 34.5731 36.9095C34.5069 36.8431 34.4406 36.7768 34.3723 36.7084C34.0399 36.3756 33.7074 36.0427 33.3749 35.7098C30.6174 32.949 27.861 30.1871 25.1054 27.4244C24.7704 27.5724 24.5456 27.7474 24.2877 28.0063C24.21 28.0837 24.1324 28.1611 24.0524 28.2408C23.9679 28.3262 23.8834 28.4115 23.7963 28.4995C23.7059 28.5899 23.6155 28.6804 23.5224 28.7735C23.2716 29.0246 23.0213 29.2762 22.7711 29.528C22.5013 29.7994 22.2308 30.0702 21.9604 30.3411C21.4919 30.8106 21.0238 31.2804 20.5558 31.7505C19.8789 32.4306 19.2013 33.1099 18.5234 33.789C17.4231 34.8913 16.3231 35.994 15.2235 37.097C15.1577 37.163 15.0918 37.229 15.024 37.297C14.2896 38.0338 13.5552 38.7706 12.8209 39.5075C12.5546 39.7747 12.2883 40.042 12.022 40.3092C11.9563 40.3752 11.8906 40.4411 11.8229 40.5091C10.7277 41.6081 9.63195 42.7065 8.53569 43.8045C7.85935 44.4819 7.18354 45.1599 6.50842 45.8385C6.04591 46.3033 5.58283 46.7676 5.11931 47.2315C4.85177 47.4992 4.5845 47.7672 4.31791 48.0359C4.02909 48.327 3.73906 48.6169 3.4489 48.9067C3.32244 49.0348 3.32244 49.0348 3.19343 49.1654C3.11553 49.2428 3.03763 49.3202 2.95737 49.3999C2.89056 49.467 2.82374 49.534 2.75491 49.6031C2.29819 49.9737 1.85997 50.0324 1.2831 49.9818C0.728742 49.7822 0.461955 49.4972 0.123603 49.0331C-0.032271 48.5655 -0.0496145 48.1625 0.122804 47.6961C0.421453 47.2029 0.808365 46.8302 1.21681 46.4262C1.3079 46.3348 1.39899 46.2435 1.49285 46.1493C1.74515 45.8966 1.99815 45.6446 2.25146 45.3928C2.52471 45.121 2.79705 44.8482 3.0695 44.5755C3.54143 44.1034 4.01393 43.6319 4.48683 43.1607C5.17056 42.4796 5.85342 41.7976 6.53606 41.1153C7.64367 40.0084 8.75198 38.9022 9.86074 37.7964C10.9377 36.7224 12.0143 35.648 13.0905 34.5731C13.19 34.4737 13.19 34.4737 13.2916 34.3723C13.6244 34.0399 13.9573 33.7074 14.2902 33.3749C17.051 30.6174 19.8129 27.861 22.5756 25.1054C22.4276 24.7704 22.2526 24.5456 21.9937 24.2877C21.9163 24.21 21.8389 24.1324 21.7592 24.0524C21.6738 23.9679 21.5885 23.8834 21.5005 23.7963C21.4101 23.7059 21.3196 23.6155 21.2265 23.5224C20.9754 23.2716 20.7238 23.0213 20.472 22.7711C20.2006 22.5013 19.9298 22.2308 19.6589 21.9604C19.1894 21.4919 18.7196 21.0238 18.2495 20.5558C17.5694 19.8789 16.8901 19.2013 16.211 18.5234C15.1087 17.4231 14.006 16.3231 12.903 15.2235C12.837 15.1577 12.771 15.0918 12.703 15.024C11.9662 14.2896 11.2294 13.5552 10.4925 12.8209C10.2253 12.5546 9.95801 12.2883 9.69076 12.022C9.62481 11.9563 9.55887 11.8906 9.49093 11.8229C8.39189 10.7277 7.29347 9.63195 6.19553 8.53569C5.51809 7.85935 4.84014 7.18354 4.16149 6.50842C3.69665 6.04591 3.23238 5.58283 2.76855 5.11931C2.50079 4.85177 2.23278 4.5845 1.96407 4.31791C1.67296 4.02909 1.38308 3.73906 1.0933 3.4489C1.00793 3.36459 0.922561 3.28029 0.834603 3.19342C0.757206 3.11553 0.679808 3.03763 0.600065 2.95737C0.533016 2.89056 0.465968 2.82374 0.396887 2.75491C0.0263326 2.29819 -0.0324087 1.85997 0.0181941 1.2831C0.217761 0.728742 0.502845 0.461955 0.96687 0.123603C1.43449 -0.032271 1.83752 -0.0496144 2.30395 0.122804Z" fill="#0000FF"/>
</g>
<defs>
<clipPath id="clip0_12_3">
<rect width="50" height="50" fill="white"/>
</clipPath>
</defs>
</svg>
